<svg width="164" height="74" viewBox="0 0 164 74" fill="none" xmlns="http://www.w3.org/2000/svg">
<g clip-path="url(#clip0_88_5575)" filter="url(#filter0_d_88_5575)">
<path d="M52.5125 24.6743C52.4882 21.1069 51.3257 17.6401 49.194 14.7779C49.1655 14.7184 49.1258 14.665 49.077 14.6205C47.6523 12.7179 45.9207 11.0654 43.9529 9.73077C43.9015 9.68971 43.8473 9.65214 43.7908 9.61832V9.61832C40.7407 7.58887 37.3039 6.21058 33.6958 5.56979H33.6508C33.6272 5.56304 33.6023 5.56304 33.5787 5.56979V5.56979C32.6782 5.39885 31.7101 5.27739 30.7555 5.19642C30.6835 3.20815 30.2738 1.98009 29.792 1.21537C29.6447 0.932775 29.4408 0.6835 29.1929 0.483059C28.945 0.282618 28.6585 0.135304 28.3511 0.050293H28.2295H28.1485C27.8407 0.135495 27.5536 0.282842 27.305 0.48323C27.0564 0.683619 26.8516 0.932792 26.7031 1.21537C26.2168 1.98009 25.8026 3.21264 25.7396 5.20092C16.3785 5.99263 8.58433 11.1073 5.47748 18.0258C5.45977 18.0621 5.44472 18.0997 5.43245 18.1382C4.51365 20.2046 4.03818 22.4403 4.03662 24.7013C4.03662 30.0589 6.64367 35.0476 11.385 38.7677C11.06 40.8612 11.2628 43.0025 11.9748 44.998V44.998C10.8582 48.5966 9.86759 53.1895 11.7497 57.094C11.7505 57.106 11.7505 57.1181 11.7497 57.13C13.92 61.5834 18.1705 62.789 22.2815 63.9496C24.2384 64.4245 26.1433 65.092 27.9684 65.9423L28.0314 65.9693H28.072C28.1139 65.9737 28.1561 65.9737 28.198 65.9693H28.2656C28.3473 65.9702 28.428 65.9501 28.4997 65.9108C30.3252 65.051 32.2317 64.3744 34.1911 63.8911C36.5325 63.2298 38.9234 62.5416 40.9451 61.2685L41.0037 61.228C42.611 60.2207 43.9003 58.7798 44.7229 57.0716C46.6275 53.1625 45.6234 48.6281 44.5698 45.1149C44.5623 45.0903 44.55 45.0674 44.5338 45.0474C45.6054 42.4474 45.3082 39.6494 45.1686 38.7137C49.9055 35.0116 52.5125 30.0319 52.5125 24.6743ZM51.4994 24.6743C51.4984 26.1297 51.2908 27.5777 50.8826 28.9748C50.1627 27.5083 49.2363 26.1526 48.1314 24.9487C46.0827 22.6996 42.458 19.9241 36.5775 18.8355C40.4353 17.3638 44.4247 16.2627 48.4916 15.5472C50.4217 18.2021 51.4733 21.3931 51.4994 24.6743V24.6743ZM47.8207 14.643C42.5349 15.5937 37.3909 17.2094 32.5116 19.4517C32.1964 16.9012 31.0617 14.8949 29.5578 14.1617C29.6074 13.9817 29.6479 13.8108 29.6884 13.6398C34.1621 12.1384 38.7844 11.122 43.4756 10.608C45.1112 11.7366 46.5747 13.0957 47.8207 14.643V14.643ZM41.9267 47.1122L41.6565 47.3506C40.692 48.1046 39.5573 48.6111 38.3516 48.8261H38.293H38.1985H38.1715C35.6545 49.2759 32.3945 48.9385 28.4277 47.7734H28.3736H28.1755H28.135C26.3281 48.3251 24.4742 48.7091 22.5967 48.9205H22.5156C18.999 49.2624 16.3515 48.6416 14.6089 47.0492C12.5872 45.2858 12.209 42.5194 12.209 40.648C13.0651 42.2584 14.3428 43.6064 15.9057 44.5481C18.4947 46.0776 21.7592 46.3475 25.618 45.4073C25.8674 45.886 26.2438 46.2869 26.706 46.5661C27.1682 46.8454 27.6984 46.9923 28.2386 46.9907V46.9907C28.7781 46.9925 29.3078 46.8456 29.7693 46.5663C30.2308 46.2869 30.6063 45.8859 30.8546 45.4073C34.7134 46.3654 37.9824 46.0776 40.5669 44.5481C42.132 43.609 43.4103 42.2604 44.2636 40.648C44.2996 42.5194 43.9214 45.2858 41.9267 47.1122ZM39.6754 60.8907C37.9288 61.7531 36.0927 62.4214 34.2001 62.8834C33.3368 62.0651 32.5954 61.1274 31.9983 60.099C31.0978 58.484 31.548 56.7072 32.2189 55.0248C32.3315 54.7369 32.4666 54.4265 32.6107 54.1026C33.16 52.8566 33.8174 51.3541 33.5922 49.9641C34.3304 50.0532 35.0731 50.0997 35.8166 50.1036C36.5629 50.1061 37.3082 50.0489 38.0454 49.9327C38.3291 50.7334 37.9238 52.1099 37.5591 53.3469C37.2491 54.2008 37.0626 55.0945 37.0053 56.001C37.0041 56.9743 37.2481 57.9323 37.7147 58.7868C38.1813 59.6413 38.8555 60.3648 39.6754 60.8907ZM28.2701 64.9392C27.5406 64.3994 25.0146 62.3167 24.5283 58.9114C24.0781 55.8165 25.4064 52.4517 28.4412 48.9025C29.7812 49.2857 31.1436 49.5861 32.5206 49.8022V49.8022C32.8808 50.9448 32.2459 52.3888 31.6831 53.6708C31.5345 54.0127 31.3949 54.3366 31.2779 54.6379C30.5349 56.5498 29.9991 58.592 31.1158 60.5758C31.6617 61.5216 32.3226 62.3964 33.0834 63.1803C31.4277 63.6203 29.8151 64.209 28.2656 64.9392H28.2701ZM40.0626 43.6934C37.6401 45.1239 34.4973 45.3398 30.742 44.3412C30.6759 44.3193 30.6059 44.3114 30.5365 44.318C30.4671 44.3245 30.3998 44.3453 30.3389 44.3791C30.278 44.413 30.2247 44.459 30.1825 44.5144C30.1403 44.5698 30.11 44.6334 30.0937 44.7011C29.9607 45.0788 29.7131 45.4057 29.3855 45.6363C29.0578 45.8669 28.6664 45.9897 28.2656 45.9876C27.8615 45.9907 27.4668 45.8663 27.1377 45.632C26.8086 45.3977 26.562 45.0656 26.433 44.6831C26.4158 44.618 26.3854 44.5573 26.3435 44.5046C26.3017 44.452 26.2493 44.4086 26.1898 44.3772C26.1255 44.3427 26.0547 44.3217 25.9819 44.3155C25.9091 44.3093 25.8358 44.318 25.7666 44.3412C22.0203 45.3353 18.891 45.1194 16.464 43.6934C14.5636 42.5211 13.143 40.7112 12.4566 38.5878C12.8664 37.7601 14.8746 33.9994 19.3863 29.627C19.8681 29.3481 25.9917 26.0014 37.1539 29.654C41.634 34.0039 43.6783 37.8051 44.079 38.5923C43.3837 40.7102 41.9589 42.513 40.0581 43.6799L40.0626 43.6934ZM24.9516 20.8957C24.9516 18.3181 25.8927 16.051 27.1714 15.2188C27.3106 15.1202 27.4619 15.04 27.6217 14.9804C27.7807 14.9205 27.9475 14.8841 28.117 14.8724H28.3061C28.4782 14.8764 28.6485 14.9083 28.8104 14.9669C28.9691 15.0194 29.1204 15.092 29.2607 15.1828C30.3998 15.889 31.2824 17.7289 31.485 19.9196C31.52 20.2438 31.5366 20.5697 31.5345 20.8957C31.5345 20.9497 31.5345 21.0082 31.5345 21.0667C31.5268 21.9026 31.4118 22.7341 31.1923 23.5408C31.0965 23.8757 30.9807 24.2047 30.8456 24.5259C30.2377 25.9699 29.2877 26.919 28.234 26.919C27.1804 26.919 26.2304 25.9744 25.6225 24.5304C25.477 24.1953 25.3581 23.8494 25.2668 23.4958C25.0454 22.6471 24.9394 21.7726 24.9516 20.8957V20.8957ZM26.0187 26.9415C24.4954 27.0102 22.9848 27.2516 21.516 27.6613V27.6613C22.4841 26.8381 23.5693 25.9879 24.767 25.1332C25.0684 25.8083 25.4928 26.4215 26.0187 26.9415V26.9415ZM30.3368 27.0855C30.9341 26.5408 31.4085 25.8753 31.7281 25.1332C33.0789 26.1093 34.3307 27.1035 35.4473 28.0796C33.7716 27.6188 32.0631 27.2865 30.3368 27.0855ZM29.918 12.4883C30.3129 10.6926 30.5748 8.87035 30.7015 7.03625C31.6021 6.86082 32.5251 6.69437 33.4752 6.54143C36.5191 7.09115 39.4406 8.17879 42.1023 9.75327C37.9641 10.2817 33.8848 11.1974 29.918 12.4883V12.4883ZM27.4821 1.80465C27.6483 1.47941 27.9067 1.21029 28.225 1.03093C28.5423 1.21175 28.8003 1.48048 28.968 1.80465C29.3012 2.36695 29.6434 3.36559 29.7154 5.08846C29.7154 5.40335 29.7154 5.74073 29.7154 6.10509V6.20855C29.7154 6.53694 29.6884 6.87881 29.6659 7.25667C29.5027 9.14738 29.2017 11.0237 28.7654 12.8706C28.6933 13.199 28.6213 13.5319 28.5402 13.8783C28.436 13.862 28.3305 13.8545 28.225 13.8558C28.1016 13.8579 27.9783 13.8669 27.8558 13.8828C27.8063 13.6713 27.7523 13.4644 27.7072 13.253C27.293 11.4973 26.9922 9.71673 26.8067 7.92243C26.7707 7.56256 26.7437 7.22069 26.7301 6.8968C26.7166 6.57292 26.7031 6.357 26.6986 6.10509C26.6986 5.74073 26.6986 5.40335 26.6986 5.09296C26.8067 3.36559 27.1534 2.36695 27.4821 1.80465V1.80465ZM25.717 6.17706C25.717 6.48745 25.7396 6.81583 25.7621 7.15321C16.5226 9.66329 10.8042 13.37 7.89542 15.7001C11.4615 10.5315 18.031 6.85182 25.717 6.17706ZM6.32398 18.5206C6.67969 18.1382 8.67888 16.069 12.6277 13.7118C16.7664 11.2886 21.213 9.43357 25.8476 8.19683C26.0538 10.0254 26.3696 11.84 26.7932 13.6309C21.795 15.5443 17.1804 18.3369 13.1681 21.8764C9.11565 25.547 7.05342 28.9658 6.22042 30.6122C5.41211 28.6967 5.00472 26.6362 5.0233 24.5575C5.04189 22.4788 5.48606 20.4259 6.32849 18.5251L6.32398 18.5206ZM6.77425 31.7997C7.40462 30.3783 11.9208 21.1431 25.7216 15.1558C24.6364 16.4243 23.943 18.4981 23.943 20.8912C23.9323 21.9782 24.0841 23.0608 24.3933 24.103C16.3785 29.744 12.7268 35.8483 11.7227 37.7421C9.67764 36.1253 7.99103 34.1018 6.76975 31.7997H6.77425ZM12.6277 46.2935C12.9865 46.8681 13.4195 47.3929 13.9155 47.8544C14.7579 48.6155 15.7546 49.1863 16.8377 49.5278V49.5278C15.7778 49.863 14.8036 50.4248 13.983 51.1742C12.9806 52.1385 12.2838 53.3758 11.9794 54.7324C11.3085 51.9524 11.8623 48.9205 12.6052 46.2935H12.6277ZM12.7268 56.7702C13.015 49.9686 19.3863 50.0721 19.6654 50.0811C19.713 50.0828 19.7604 50.0751 19.805 50.0586V50.0586C20.1427 50.0586 20.4894 50.0856 20.8406 50.0586C18.7514 51.705 17.4861 53.6123 17.0809 55.749C16.7522 57.6744 17.0438 59.6544 17.9139 61.4035C15.7526 60.4813 13.8975 59.1453 12.7043 56.7702H12.7268ZM19.4133 61.9928C19.0396 61.4215 17.5267 58.8844 18.094 55.947C18.5443 53.6663 20.1067 51.6555 22.7678 49.9686C24.1536 49.8197 25.5263 49.5671 26.8742 49.2129C24.2132 52.6452 23.083 55.9605 23.5332 59.0553C23.8086 60.8538 24.5787 62.5404 25.7576 63.9271C24.6994 63.5582 23.6188 63.2523 22.5562 62.9509C21.4935 62.6495 20.4084 62.3436 19.4133 61.9928ZM40.6795 60.2699C39.8828 59.866 39.2136 59.2495 38.7463 58.4888C38.279 57.7282 38.0317 56.853 38.0319 55.9605C38.097 55.1602 38.2681 54.3721 38.5407 53.6168C38.9549 52.2313 39.3737 50.8053 39.063 49.7167C39.899 49.5136 40.7002 49.1877 41.4404 48.7496V48.7496C41.4404 52.6317 43.5792 54.3006 44.4707 54.8314C44.3187 55.4659 44.0998 56.0827 43.8178 56.6712C43.1081 58.132 42.0178 59.3751 40.6615 60.2699H40.6795ZM44.6823 53.7518C43.8043 53.1085 42.2554 51.4666 42.4895 47.9804L42.6336 47.8544C43.113 47.4149 43.5323 46.9143 43.8809 46.3654C44.5022 48.6416 45.011 51.2507 44.6643 53.7518H44.6823ZM44.7949 37.7556C43.8088 35.8933 40.1707 29.8115 32.1154 24.148C32.441 23.0949 32.602 21.9979 32.5926 20.8957C32.5926 20.7878 32.5926 20.6753 32.5926 20.5718C33.2996 20.23 34.029 19.8971 34.781 19.5867C41.3414 20.3694 45.2452 23.2799 47.3659 25.5965C48.6711 26.992 49.7021 28.6202 50.4053 30.3963C49.1936 33.292 47.2551 35.8267 44.7769 37.7556H44.7949Z" fill="white"/>
<path d="M21.5289 35.9868C20.0295 35.9868 18.6877 36.6436 18.1834 37.6242C18.1234 37.7437 18.1129 37.8819 18.1542 38.0091C18.1955 38.1362 18.2853 38.242 18.4041 38.3035C18.4755 38.3387 18.554 38.3572 18.6337 38.3574C18.7268 38.3577 18.8181 38.3322 18.8976 38.2837C18.9771 38.2353 19.0416 38.1658 19.084 38.083C19.4127 37.4443 20.4348 36.9944 21.5289 36.9944C22.6231 36.9944 23.6452 37.4443 23.9784 38.083C24.0084 38.1422 24.0499 38.1949 24.1003 38.238C24.1508 38.2812 24.2093 38.3139 24.2725 38.3344C24.3357 38.3549 24.4023 38.3627 24.4685 38.3574C24.5347 38.3521 24.5992 38.3338 24.6583 38.3035C24.7782 38.242 24.8689 38.1354 24.9102 38.0072C24.9516 37.879 24.9403 37.7396 24.8789 37.6197C24.3656 36.6436 23.0148 35.9868 21.5289 35.9868Z" fill="white"/>
<path d="M34.9786 35.9868C33.4792 35.9868 32.1329 36.6436 31.6331 37.6242C31.6022 37.6831 31.5833 37.7476 31.5777 37.8139C31.5721 37.8802 31.5798 37.947 31.6003 38.0102C31.6209 38.0735 31.6539 38.132 31.6974 38.1824C31.7409 38.2328 31.7941 38.2739 31.8537 38.3035C31.9252 38.3387 32.0037 38.3572 32.0834 38.3574C32.1765 38.3577 32.2678 38.3322 32.3473 38.2837C32.4267 38.2353 32.4913 38.1658 32.5336 38.083C32.8623 37.4443 33.8844 36.9944 34.9786 36.9944C36.0728 36.9944 37.0949 37.4443 37.4281 38.083C37.4581 38.1422 37.4995 38.1949 37.55 38.238C37.6005 38.2812 37.659 38.3139 37.7222 38.3344C37.7853 38.3549 37.8519 38.3627 37.9181 38.3574C37.9844 38.3521 38.0489 38.3338 38.108 38.3035C38.227 38.2411 38.3169 38.1345 38.3582 38.0066C38.3994 37.8788 38.3888 37.7398 38.3286 37.6197C37.8198 36.6436 36.4735 35.9868 34.9786 35.9868Z" fill="white"/>
<path d="M67.8707 29.0776C71.1621 29.0776 74.7282 30.877 75.3406 35.1099H71.3467C70.7794 33.4995 69.5727 32.7708 67.8707 32.7708C65.4887 32.7708 63.9218 34.5701 63.9218 37.1927C63.9218 39.5318 65.4662 41.5696 67.8707 41.5966C69.5997 41.5966 70.982 40.7329 71.4143 39.0325H75.4081C74.8183 43.5309 71.2567 45.2897 67.8707 45.2897C63.8182 45.3122 59.7433 42.5907 59.7208 37.1927C59.6983 31.7947 63.8317 29.0776 67.8707 29.0776Z" fill="white"/>
<path d="M81.7657 44.6956L84.2512 39.5765L78.9065 29.851V29.2393H83.4452L86.444 35.0871H86.5566L89.2807 29.2393H93.7068V29.851L86.1468 45.1455H81.7657V44.6956Z" fill="white"/>
<path d="M98.7049 45.1455H94.729V44.5562L101.879 29.0684H103.613L110.817 44.5427V45.1455H106.841L102.757 35.8474L98.7049 45.1455Z" fill="white"/>
<path d="M112.668 32.8875V29.2573H124.469V32.8875H120.588V45.1456H116.572V32.8875H112.668Z" fill="white"/>
<path d="M137.5 43.1347H131.237L130.305 45.1455H126.333V44.5562L133.484 29.0684H135.231L142.404 44.5562V45.1455H138.432L137.5 43.1347ZM134.348 35.4875L132.547 39.662H136.181L134.348 35.4875Z" fill="white"/>
<path d="M160 45.1456H155.844V38.7579H150.941V45.1456H146.789V29.2573H150.941V35.0152H155.844V29.2573H160V45.1456Z" fill="white"/>
</g>
<defs>
<filter id="filter0_d_88_5575" x="0" y="0" width="164" height="74" filterUnits="userSpaceOnUse" color-interpolation-filters="sRGB">
<feFlood flood-opacity="0" result="BackgroundImageFix"/>
<feColorMatrix in="SourceAlpha" type="matrix" values="0 0 0 0 0 0 0 0 0 0 0 0 0 0 0 0 0 0 127 0" result="hardAlpha"/>
<feOffset dy="4"/>
<feGaussianBlur stdDeviation="2"/>
<feComposite in2="hardAlpha" operator="out"/>
<feColorMatrix type="matrix" values="0 0 0 0 0 0 0 0 0 0 0 0 0 0 0 0 0 0 0.25 0"/>
<feBlend mode="normal" in2="BackgroundImageFix" result="effect1_dropShadow_88_5575"/>
<feBlend mode="normal" in="SourceGraphic" in2="effect1_dropShadow_88_5575" result="shape"/>
</filter>
<clipPath id="clip0_88_5575">
<rect width="156" height="66" fill="white" transform="translate(4)"/>
</clipPath>
</defs>
</svg>
